<svg xmlns="http://www.w3.org/2000/svg" width="290.55" height="34.91" viewBox="0 0 290.55 34.91">
  <g id="TruBar_Logo_black_27e04340-1bc2-40f8-9283-cf6535080bf9" transform="translate(-3.45 -7.561)">
    <path id="Path_723" data-name="Path 723" d="M95.83,7.66V25.79c0,10.61,5.98,16.68,15.86,16.68s15.96-6.07,15.96-16.68V7.66h-8.52v18.4c0,5.26-2.99,8.61-7.43,8.61s-7.34-3.35-7.34-8.61V7.66Z" fill="#696969"/>
    <path id="Path_724" data-name="Path 724" d="M172.33,16.58c0-5.03-2.68-8.92-12.9-8.92H144.61V41.84h14.93c10.94,0,13.84-4.48,13.84-9.95,0-4.21-3.01-7.11-7.38-7.93C169.92,22.86,172.33,20.51,172.33,16.58Zm-19.3-2.41h5.58c3.33,0,5.03,1.26,5.03,3.82s-1.8,4.05-5.47,4.05h-5.14Zm5.85,21.16h-5.85V27.45h5.58c3.72,0,6.02,1.04,6.02,3.94C164.62,34.08,162.82,35.33,158.88,35.33Z" fill="#696969"/>
    <path id="Path_725" data-name="Path 725" d="M266.6,19.72c0-7.43-5.71-12.06-14.23-12.06H237.5V41.84h8.52V31.87h5.26l7.43,9.97h10.15l-8.79-11.51A11.522,11.522,0,0,0,266.6,19.72Zm-14.33,4.44h-6.26V15h6.26c3.26,0,5.8,1.72,5.8,4.53S255.63,24.16,252.27,24.16Z" fill="#696969"/>
    <path id="Path_726" data-name="Path 726" d="M186.98,41.84h8.64l2.46-7.27h12.68l2.52,7.27h8.64L210,7.66H199.12Zm17.5-27.45,4.37,13.39h-8.91Z" fill="#696969"/>
    <path id="Path_727" data-name="Path 727" d="M14.33,41.85h8.43V15.29H33.73V7.68H3.45v7.61H14.33Z" fill="#696969"/>
    <path id="Path_728" data-name="Path 728" d="M79.15,19.71c0-7.43-5.71-12.06-14.23-12.06H50.05V41.83h8.52V31.86h5.26l7.43,9.97H81.41L72.62,30.32A11.5,11.5,0,0,0,79.15,19.71ZM64.82,24.16H58.56V15h6.26c3.26,0,5.8,1.72,5.8,4.53S68.18,24.16,64.82,24.16Z" fill="#696969"/>
    <g id="Group_143" data-name="Group 143">
      <path id="Path_729" data-name="Path 729" d="M274.13,9.1h3.21v8.59h1.78V9.1h3.22V7.56h-8.21Z" fill="#696969"/>
      <path id="Path_730" data-name="Path 730" d="M291.53,7.56l-2.72,7.94h-.03l-2.8-7.94h-2.49V17.69h1.68V9.88h.03l2.81,7.81h1.46l2.81-7.81h.03v7.81H294V7.56Z" fill="#696969"/>
    </g>
  </g>
</svg>
